<?xml version="1.0" encoding="UTF-8" standalone="no"?>
<!DOCTYPE svg PUBLIC "-//W3C//DTD SVG 1.1//EN" "http://www.w3.org/Graphics/SVG/1.1/DTD/svg11.dtd">
<svg xmlns="http://www.w3.org/2000/svg" version="1.1" viewBox="0.00 0.00 200.00 200.00">
<path fill="#000000" d="
  M 97.83 0.00
  L 105.07 0.00
  Q 140.03 2.32 165.29 24.19
  Q 196.27 51.02 200.00 93.27
  L 200.00 106.98
  Q 196.41 146.94 168.05 173.30
  Q 142.01 197.50 105.09 200.00
  L 95.02 200.00
  Q 53.38 197.11 26.19 167.53
  Q 2.40 141.63 0.00 104.95
  L 0.00 94.74
  Q 2.47 59.04 26.10 32.61
  C 28.70 29.70 31.66 26.74 35.28 25.23
  Q 45.32 21.04 54.24 26.70
  Q 60.87 30.93 62.76 38.67
  C 64.73 46.74 61.79 53.40 56.20 59.11
  C 46.96 68.56 41.50 81.66 40.29 94.61
  C 38.61 112.57 45.31 130.86 58.47 143.30
  C 86.12 169.41 129.48 164.09 150.20 132.73
  C 160.20 117.60 162.75 97.99 156.73 80.66
  Q 147.67 54.60 120.77 43.63
  Q 120.06 43.34 120.06 44.10
  Q 119.88 66.30 120.06 88.17
  C 120.13 96.92 116.59 104.04 108.61 107.98
  C 98.32 113.08 85.53 108.00 81.42 97.36
  Q 79.82 93.23 79.88 87.32
  Q 80.18 54.43 79.88 22.92
  Q 79.83 17.04 81.36 12.95
  Q 85.32 2.34 97.83 0.00
  Z"
/>
</svg>
